<svg xmlns="http://www.w3.org/2000/svg" width="168.5" height="160.707" viewBox="0 0 168.5 160.707"><path fill="#3A4546" d="M152.332 145.974l-17.546-17.546c9.423-10.704 15.155-24.73 15.155-40.078 0-33.495-27.25-60.745-60.744-60.745-16.181 0-30.89 6.377-41.788 16.731l-13.022-13.022v-14.626c0-1.019-.827-1.845-1.846-1.845-1.019 0-1.844.826-1.844 1.845v10.935l-3.732-3.73v-14.626c0-1.019-.826-1.846-1.846-1.846-1.018 0-1.845.827-1.845 1.846v10.935l-3.73-3.73.001-14.626c0-1.02-.827-1.846-1.846-1.846-1.019 0-1.846.826-1.846 1.846l.001 10.936-2.723-2.724c-.721-.721-1.889-.721-2.609 0s-.72 1.889 0 2.61l2.722 2.723h-10.934c-1.019 0-1.846.826-1.846 1.845 0 1.019.827 1.846 1.846 1.846h14.625l3.731 3.73h-10.935c-1.019 0-1.845.826-1.845 1.845 0 1.02.826 1.846 1.845 1.846h14.625l3.731 3.73h-10.935c-1.019 0-1.845.827-1.845 1.846s.827 1.846 1.845 1.846h14.625l52.001 52c-.358.738-.564 1.563-.564 2.439 0 3.1 2.512 5.612 5.614 5.612 3.1 0 5.613-2.513 5.613-5.612 0-3.101-2.514-5.613-5.613-5.613-.876 0-1.701.207-2.439.563l-9.927-9.926c3.435-2.935 7.875-4.722 12.734-4.722 10.855 0 19.687 8.831 19.687 19.686 0 10.853-8.831 19.682-19.687 19.682-10.852 0-19.682-8.829-19.682-19.682 0-3.813 1.107-7.367 2.993-10.386l-2.681-2.683c-2.526 3.733-4.003 8.23-4.003 13.066 0 12.889 10.487 23.373 23.374 23.373 12.89 0 23.376-10.484 23.376-23.373s-10.486-23.375-23.376-23.375c-5.877 0-11.254 2.185-15.364 5.782l-10.44-10.438c6.797-6.264 15.857-10.106 25.804-10.106 21.029 0 38.14 17.109 38.14 38.14 0 21.028-17.11 38.137-38.14 38.137-21.028 0-38.138-17.11-38.138-38.137 0-8.912 3.08-17.112 8.221-23.612l-2.627-2.626c-5.8 7.182-9.284 16.309-9.284 26.239 0 23.062 18.764 41.827 41.828 41.827 23.065 0 41.83-18.764 41.83-41.827 0-23.065-18.763-41.831-41.83-41.831-10.965 0-20.949 4.254-28.417 11.185l-10.11-10.11c10.061-9.519 23.62-15.377 38.53-15.377 30.95 0 56.131 25.18 56.131 56.131 0 30.95-25.181 56.13-56.131 56.13-30.952 0-56.131-25.18-56.131-56.13 0-13.873 5.069-26.578 13.44-36.384l-3.269-3.269c-9.201 10.65-14.786 24.508-14.786 39.653 0 15.729 6.01 30.077 15.853 40.877l-.037.028-15.967 15.969c-1.441 1.441-1.441 3.778 0 5.219.72.721 1.666 1.083 2.61 1.083s1.889-.362 2.609-1.083l15.968-15.967.105-.128c10.644 9.176 24.482 14.744 39.604 14.744 15.498 0 29.647-5.84 40.391-15.426l17.526 17.526c.72.72 1.663 1.081 2.609 1.081.943 0 1.889-.361 2.608-1.081 1.442-1.441 1.442-3.778-.001-5.219z"/></svg>