<svg xmlns="http://www.w3.org/2000/svg" width="150" height="150" viewBox="0 0 150 150"><path fill="#3A4546" d="M132.265 33.305l-7.187.004v-23.438l-94.075-.022c-7.445 0-13.502 6.058-13.502 13.502v99.293c0 7.444 6.057 13.502 13.502 13.502h101.497l-.235-102.841zm-97.019 99.35h-4.243c-5.521 0-10.011-4.49-10.011-10.011v-90.264c2.473 2.739 6.039 4.473 10.011 4.473h.001l4.242-.003v95.805zm-4.243-99.293c-5.521 0-10.011-4.492-10.011-10.011 0-5.52 4.49-10.011 10.01-10.011l90.583.021v19.949l-52.642.03v-3.568h47.68c.529 0 .958-.428.958-.958 0-.529-.429-.957-.958-.957h-85.434c-.53 0-.958.428-.958.957 0 .53.429.958.958.958h21.169v3.578l-21.355.012zm7.734 99.293v-95.806l13.62-.008v22.746l8.479-4.46 8.478 4.46v-22.755l59.464-.032.22 95.856h-90.261zm-6.973-113.354h84.86c.529 0 .958-.429.958-.958 0-.529-.429-.958-.958-.958h-84.86c-.53 0-.958.429-.958.958 0 .529.428.958.958.958zm85.818 4.277c0-.529-.429-.957-.958-.957h-88.244c-.529 0-.957.428-.957.957 0 .529.428.958.957.958h88.244c.529 0 .958-.429.958-.958z"/></svg>