<svg xmlns="http://www.w3.org/2000/svg" width="150" height="150" viewBox="0 0 150 150"><path d="M74.999 40.549c-18.996 0-34.45 15.454-34.45 34.45s15.454 34.45 34.45 34.45 34.451-15.454 34.451-34.45-15.455-34.45-34.451-34.45zm0 62.605c-15.524 0-28.154-12.631-28.154-28.155s12.63-28.155 28.154-28.155c15.525 0 28.156 12.631 28.156 28.155s-12.631 28.155-28.156 28.155zm0-70.575c1.118 0 2.023-.906 2.023-2.023v-26.964c0-1.118-.905-2.023-2.023-2.023-1.117 0-2.023.905-2.023 2.023v26.964c0 1.117.906 2.023 2.023 2.023zm0 84.841c-1.117 0-2.023.905-2.023 2.023v26.964c0 1.118.906 2.023 2.023 2.023 1.118 0 2.023-.905 2.023-2.023v-26.964c0-1.118-.905-2.023-2.023-2.023zm31.428-72.047c.46 0 .92-.176 1.271-.527l19.066-19.068c.702-.701.702-1.841 0-2.543-.703-.703-1.842-.703-2.544 0l-19.065 19.068c-.703.702-.703 1.842 0 2.543.351.351.811.527 1.272.527zm-64.124 59.781l-19.068 19.066c-.702.702-.702 1.841 0 2.543.352.352.812.527 1.272.527.46 0 .92-.176 1.271-.527l19.069-19.066c.703-.702.703-1.841 0-2.543-.702-.702-1.841-.702-2.544 0zm104.106-32.178l-26.967.001c-1.117 0-2.022.906-2.022 2.023s.905 2.023 2.022 2.023l26.967-.001c1.117 0 2.022-.905 2.022-2.023.001-1.117-.905-2.023-2.022-2.023zm-113.828 2.024c0-1.117-.906-2.023-2.023-2.023h-26.965c-1.118 0-2.024.906-2.024 2.023s.906 2.023 2.024 2.023h26.965c1.117 0 2.023-.906 2.023-2.023zm75.117 30.154c-.702-.703-1.841-.703-2.543 0-.703.702-.703 1.841 0 2.543l19.067 19.066c.352.352.812.527 1.272.527.459 0 .92-.176 1.271-.527.703-.702.703-1.841 0-2.543l-19.067-19.066zm-65.396-60.308c.352.351.812.526 1.272.526.46 0 .92-.176 1.271-.526.703-.703.703-1.842 0-2.544l-19.067-19.068c-.702-.703-1.841-.703-2.543 0-.702.702-.702 1.842 0 2.543l19.067 19.069zm55.467 26.905c-1.109-.027-2.024.839-2.055 1.943-.307 10.97-8.736 20.249-19.608 21.586-1.097.135-1.876 1.132-1.741 2.229.124 1.013.986 1.756 1.982 1.756l.246-.016c12.819-1.575 22.758-12.514 23.119-25.444.031-1.104-.84-2.024-1.943-2.054z" fill="#3A4546"/></svg>