<svg xmlns="http://www.w3.org/2000/svg" width="150" height="150" viewBox="0 0 150 150"><path fill="#3A4546" d="M96.673 74.147l43.006-43.004-21.821-21.823-43.004 43.005-32.508-32.507-20.496 20.497 88.915 88.912.305.306 28.011 7.516-7.514-28.012-34.894-34.89zm21.185-60.274l17.267 17.27-9.875 9.875-7.203-7.204c-.393-.393-1.029-.393-1.423 0-.393.393-.393 1.03 0 1.423l7.203 7.204-9.167 9.168-7.445-7.446c-.391-.393-1.029-.393-1.422 0-.392.393-.392 1.03 0 1.423l7.444 7.446-8.996 8.997-7.205-7.205c-.393-.392-1.03-.392-1.423 0-.392.393-.392 1.03.001 1.423l7.205 7.203-8.421 8.421-17.27-17.271 40.73-40.727zm-91.456 26.442l15.944-15.945 1.596 1.597-15.945 15.946-1.595-1.598zm3.018 3.02l15.944-15.945 1.978 1.977-15.944 15.945-1.978-1.977zm3.4 3.399l15.943-15.944 1.821 1.82-15.946 15.945-1.818-1.821zm78.436 78.433l-74.88-74.876 15.945-15.944 74.706 74.705-5.36.327-1.185 6.796-72.878-72.878-2.277 2.276 72.743 72.742-6.049.712-.765 6.14zm16.856 5.607l-15.026-4.031.737-5.902 8.052-.947 1.502-8.604 5.372-.327 4.396 16.386-5.033 3.425zm-107.555-92.55l19.698-19.697-4.63-4.63c-1.517-1.517-3.534-2.386-5.535-2.386-1.695 0-3.25.624-4.381 1.756l-10.414 10.412c-2.559 2.561-2.275 7.008.633 9.917l4.629 4.628zm45.662 61.826l-7.204-7.203c-.392-.394-1.028-.394-1.421 0-.393.393-.393 1.028 0 1.423l7.204 7.202-10.351 10.35-7.203-7.204c-.392-.395-1.029-.395-1.423 0-.394.393-.393 1.028 0 1.422l7.204 7.205-10.156 10.155-7.204-7.206c-.393-.392-1.03-.392-1.422 0-.394.394-.394 1.029-.001 1.423l7.205 7.206-9.302 9.301-17.27-17.267 40.251-40.254-2.275-2.276-42.529 42.53 21.824 21.82 42.526-42.529-2.276-2.276-6.177 6.178z"/></svg>