<svg xmlns="http://www.w3.org/2000/svg" width="150" height="150" viewBox="0 0 150 150"><path fill="#3A4546" d="M115.328 95.907h-59.236c-.448 0-.81.362-.81.812 0 .448.362.811.81.811h59.236c.448 0 .811-.362.811-.811s-.363-.812-.811-.812zm0 7.805h-59.236c-.448 0-.81.364-.81.812s.362.811.81.811h59.236c.448 0 .811-.363.811-.811s-.363-.812-.811-.812zm-10.009 7.804h-49.227c-.448 0-.81.364-.81.812 0 .446.362.811.81.811h49.227c.447 0 .81-.364.81-.811 0-.448-.362-.812-.81-.812zm-58.391-20.808h-27.629v27.63h27.629v-27.63zm-4.219 2.926l-9.596 9.596-9.595-9.596h19.191zm-20.484 1.296l9.595 9.594-9.595 9.596v-19.19zm1.294 20.481l9.595-9.594 9.596 9.594h-19.191zm20.483-1.293l-9.596-9.596 9.596-9.595v19.191zm-23.24-36.001h45.869c.448 0 .811-.362.811-.812 0-.447-.363-.811-.811-.811h-45.869c-.449 0-.811.363-.811.811s.362.812.811.812zm0-7.806h59.236c.447 0 .811-.363.811-.811s-.363-.811-.811-.811h-59.236c-.449 0-.811.364-.811.811 0 .448.362.811.811.811zm0-7.803h59.236c.447 0 .811-.364.811-.811s-.363-.811-.811-.811h-59.236c-.449 0-.811.363-.811.811s.362.811.811.811zm85.421-22.923h9.146v1.829h-9.146v-1.829zm10.609 16.102h-27.629v27.629h27.629v-27.629zm-4.22 2.926l-9.596 9.595-9.594-9.595h19.19zm-20.483 1.293l9.596 9.595-9.596 9.595v-19.19zm1.294 20.483l9.594-9.594 9.596 9.594h-19.19zm20.483-1.293l-9.596-9.595 9.596-9.595v19.19zm-93.367-40.42h20.622v6.585h-20.622v-6.585zm3.506-24.917v6.931h-6.931v6.993h-6.994v104.554h115.912v-6.993h6.994v-6.931h6.932v-104.554h-115.913zm98.743 115.233h-109.423v-98.065h109.423v98.065zm6.993-6.993h-3.747v-94.316h-105.675v-3.749h109.422v98.065zm6.933-6.931h-3.688v-94.378h-105.736v-3.687h109.424v98.065z"/></svg>