<svg xmlns="http://www.w3.org/2000/svg" width="150" height="150" viewBox="0 0 150 150"><path d="M18.41 24.445c-2.818 0-5.111 2.294-5.111 5.112 0 2.819 2.293 5.113 5.111 5.113 2.819 0 5.112-2.294 5.112-5.113 0-2.818-2.293-5.112-5.112-5.112zm0 7.76c-1.459 0-2.646-1.188-2.646-2.647 0-1.459 1.187-2.646 2.646-2.646 1.46 0 2.647 1.188 2.647 2.646 0 1.46-1.187 2.647-2.647 2.647zm14.144-7.76c-2.819 0-5.112 2.294-5.112 5.112 0 2.819 2.293 5.113 5.112 5.113 2.82 0 5.113-2.294 5.113-5.113 0-2.818-2.293-5.112-5.113-5.112zm0 7.76c-1.459 0-2.647-1.188-2.647-2.647 0-1.459 1.188-2.646 2.647-2.646 1.46 0 2.648 1.188 2.648 2.646 0 1.46-1.188 2.647-2.648 2.647zm14.142-7.76c-2.819 0-5.112 2.294-5.112 5.112 0 2.819 2.293 5.113 5.112 5.113 2.818 0 5.112-2.294 5.112-5.113 0-2.818-2.293-5.112-5.112-5.112zm0 7.76c-1.46 0-2.646-1.188-2.646-2.647 0-1.459 1.187-2.646 2.646-2.646 1.459 0 2.646 1.188 2.646 2.646.001 1.46-1.187 2.647-2.646 2.647zm90.234-15.679h-123.861c-4.946 0-8.969 4.024-8.969 8.97v99.009c0 4.945 4.023 8.969 8.969 8.969h123.861c4.946 0 8.97-4.023 8.97-8.969v-99.009c0-4.945-4.024-8.97-8.97-8.97zm5.373 107.979c0 2.963-2.41 5.372-5.373 5.372h-123.861c-2.962 0-5.372-2.409-5.372-5.372v-82.065h134.605v82.065zm0-85.661h-134.606v-13.348c0-2.962 2.41-5.372 5.372-5.372h123.861c2.962 0 5.373 2.41 5.373 5.372v13.348zm-87.249 69.094l-20.604-20.602 20.604-20.603-4.649-4.649-25.254 25.252 25.254 25.251zm37.083-.002l4.648 4.648 25.252-25.25-25.252-25.253-4.648 4.648 20.603 20.605zm-28.16 14.204c.251.059.503.086.75.086 1.493 0 2.844-1.023 3.199-2.54l14.981-64.161c.413-1.768-.686-3.535-2.454-3.948-1.768-.415-3.536.686-3.949 2.453l-14.981 64.16c-.413 1.769.686 3.536 2.454 3.95z" fill="#3A4546"/></svg>