<svg xmlns="http://www.w3.org/2000/svg" width="164.044" height="176.566" viewBox="0 0 164.044 176.566"><path fill="#fff" d="M73.127 1.695h-71.254v134.048h9.385v9.376h8.44v10.303h11.712v9.842h9.376v9.494s38.555.115 43.237.115c19.628 0 78.145-24.635 78.145-86.924 0-45.711-36.517-86.254-89.041-86.254zm8.904 133.684h-40.898v-95.6h39.369s42.524 6.834 42.524 48.503c0 43.081-40.995 47.097-40.995 47.097z"/><path fill="#3A4546" d="M75.775 0h-75.775v138.413h9.525v9.553l9.561-.005v9.528h9.508v9.551h9.562v9.526h37.609c48.678 0 88.278-39.605 88.278-88.28.008-48.682-39.598-88.286-88.268-88.286zm-61.441 143.155v-4.742h61.447c27.643 0 50.119-22.487 50.119-50.131s-22.476-50.122-50.119-50.122h-37.614v95.438h-4.759v-100.132h42.362c30.237 0 54.829 24.587 54.829 54.82 0 30.245-24.599 54.832-54.829 54.832l-61.436.037zm28.643-9.556v-90.623h32.805c24.984 0 45.312 20.323 45.312 45.307 0 24.987-20.328 45.316-45.312 45.316h-32.805zm-19.079 19.073v-4.711l51.877-.046c32.891 0 59.648-26.737 59.648-59.633 0-32.889-26.758-59.636-59.648-59.636h-47.181v104.952h-4.695v-109.709h51.877c35.498 0 64.393 28.891 64.393 64.394 0 35.5-28.881 64.39-64.393 64.39h-51.878zm9.51 9.559v-4.742h42.362c38.149 0 69.2-31.052 69.2-69.207 0-38.154-31.051-69.198-69.2-69.198h-56.684v114.515h-4.752v-119.22h61.447c40.752 0 73.908 33.154 73.908 73.907 0 40.773-33.156 73.945-73.908 73.945h-42.373zm42.367 9.521h-32.798v-4.712h32.799c43.416 0 78.715-35.325 78.715-78.758 0-43.402-35.299-78.718-78.715-78.718h-66.251v124.034h-4.718v-128.782h70.969c46.027 0 83.469 37.444 83.469 83.47-.001 46.026-37.442 83.466-83.47 83.466z"/></svg>