<svg xmlns="http://www.w3.org/2000/svg" width="164.044" height="176.566" viewBox="0 0 164.044 176.566"><path fill="#A4F4FF" d="M79.834 29.939h-49.629v93.349h6.539v6.53h5.879v7.177h8.153v6.854h6.532v6.612l30.113.08s54.426-7.105 54.426-60.537c.001-36.571-29.37-60.065-62.013-60.065zm6.202 93.096h-28.485v-66.576h27.418s30.848 6.903 30.848 33.776c0 26.868-29.781 32.8-29.781 32.8z"/><path fill="#33BBD1" d="M30.206 30.086l27.476 27.436-.795 66.082h-26.444z"/><path fill="#363636" d="M81.678 28.761h-52.777v96.389h6.637v6.651l6.656-.005v6.637h6.623v6.654h6.662v6.634h26.189c33.904 0 61.484-27.583 61.484-61.483.005-33.903-27.577-61.477-61.474-61.477zm-42.792 99.69v-3.302h42.794c19.255 0 34.907-15.664 34.907-34.914 0-19.254-15.652-34.906-34.907-34.906h-26.195v66.467h-3.315v-69.734h29.504c21.062 0 38.188 17.118 38.188 38.176 0 21.063-17.133 38.188-38.188 38.188l-42.788.025zm19.948-6.655v-63.114h22.846c17.402 0 31.559 14.151 31.559 31.554s-14.156 31.561-31.559 31.561h-22.846zm-13.289 13.283v-3.283l36.133-.027c22.907 0 41.543-18.625 41.543-41.533 0-22.907-18.636-41.529-41.543-41.529h-32.861v73.09h-3.271v-76.403h36.133c24.725 0 44.846 20.115 44.846 44.842 0 24.725-20.112 44.844-44.846 44.844h-36.134zm6.624 6.658v-3.305h29.504c26.569 0 48.196-21.625 48.196-48.197 0-26.573-21.627-48.188-48.196-48.188h-39.479v79.748h-3.308v-83.023h42.794c28.385 0 51.476 23.085 51.476 51.465 0 28.396-23.091 51.5-51.476 51.5h-29.511zm29.509 6.63h-22.845v-3.28h22.846c30.238 0 54.821-24.604 54.821-54.852 0-30.228-24.583-54.815-54.821-54.815h-46.141v86.376h-3.285v-89.682h49.426c32.057 0 58.131 26.071 58.131 58.123-.001 32.055-26.075 58.13-58.132 58.13z"/></svg>